PathFileType	4	(X/Y/Z)	25_coords_data.trc
DataRate	CameraRate	NumFrames	NumMarkers	Units	OrigDataRate	OrigDataStartFrame	OrigNumFrames
30.0	30.0	9	21	m	30.0	21	60
Frame#	Time	THUMB_TIP	THUMB_IP	THUMB_MCP	THUMB_CMC	INDEX_TIP	INDEX_DIP	INDEX_PIP	INDEX_MCP	MIDDLE_TIP	MIDDLE_DIP	MIDDLE_PIP	MIDDLE_MCP	RING_TIP	RING_DIP	RING_PIP	RING_MCP	PINKY_TIP	PINKY_DIP	PINKY_PIP	PINKY_MCP	WRIST
X1	Y1	Z1	X2	Y2	Z2	X3	Y3	Z3	X4	Y4	Z4	X5	Y5	Z5	X6	Y6	Z6	X7	Y7	Z7	X8	Y8	Z8	X9	Y9	Z9	X10	Y10	Z10	X11	Y11	Z11	X12	Y12	Z12	X13	Y13	Z13	X14	Y14	Z14	X15	Y15	Z15	X16	Y16	Z16	X17	Y17	Z17	X18	Y18	Z18	X19	Y19	Z19	X20	Y20	Z20	X21	Y21	Z21
19	0.6666666666666637	0.485195582080738	-0.018105672469135414	-0.17137281040926788	0.4863011315566801	-0.02096461717447662	-0.148599927510345	0.4839493577421526	-0.027421384148949235	-0.11824207316978497	0.480626516153447	-0.026089710061658278	-0.0737777575009072	0.5087493672718888	-0.014050761003686185	-0.09646825879367305	0.5265641407590529	-0.01459139839915069	-0.0996840878948011	0.5398576442098733	-0.000922851410342318	-0.11606894133380885	0.5003432245831054	0.014906662965022965	-0.11736246759941371	0.5075534124277826	-0.014901758996360592	-0.08433123255293129	0.5250337642286989	-0.010182235362474645	-0.0839270078809985	0.5434388871390221	0.006750342943831811	-0.09889192660970181	0.5041721046376431	0.02804436752688888	-0.09980419304313248	0.5123100127893429	-0.0032525010440326296	-0.07200785640654861	0.5296047446112202	0.0009858715093136183	-0.07482360662778442	0.545433730304133	0.017284224765758416	-0.08502100198452611	0.5092357654052166	0.03489216051610233	-0.08122774879121297	0.5224695658984421	-0.002957670732215867	-0.06128537817744095	0.5390531212550973	-3.1478164766785e-05	-0.06435508317808125	0.545753762579464	0.019093550286729877	-0.0698456852918421	0.5121846014859448	0.030339217571519916	-0.06295149630421149	0.4622830810018609	-0.023011742144276925	-0.051989820119430985
20	0.6999999999999968	0.4852766986457918	-0.01814819294090364	-0.17137609264915288	0.4863621281600996	-0.020998779091904396	-0.14860119415618056	0.4840016763922436	-0.02743229066473607	-0.1182390763727672	0.48062516012675327	-0.02608760761773332	-0.07377919597018423	0.5086144749093964	-0.013983468803247745	-0.09648508018369928	0.526435316660872	-0.014631384776419343	-0.09964701063210835	0.5398236831081547	-0.0010008910463151777	-0.11598626145786117	0.5003523951828803	0.01493059127959473	-0.11734324134692742	0.5074490076326568	-0.014897438200322632	-0.08439663807890807	0.5249350705318967	-0.010208126480598878	-0.08389868237898612	0.5434218050296553	0.006661486792141069	-0.09883408815310513	0.5042066078774707	0.02804940375719911	-0.09976856191469186	0.512211212726601	-0.0032549921676662263	-0.0719941449484518	0.5295259804463197	0.0009359901776637702	-0.07475720227563898	0.5454257411375525	0.017173519510064073	-0.08494151521962146	0.5092718889114344	0.03488109018829022	-0.08119161603595793	0.5224001490177623	-0.0029778004186377105	-0.06125966719433862	0.5389913343789521	-6.987656695800482e-05	-0.06430540966268206	0.5457799456634436	0.019023769589877948	-0.0697971718812802	0.5122232239898441	0.030311381216329703	-0.06291097515950606	0.4622830810018609	-0.023011742144276925	-0.051989820119430985
21	0.7333333333333302	0.4854831288352101	-0.01833950131524298	-0.1713772476842994	0.48652659332981174	-0.021142716168518483	-0.14859450929895857	0.4841093002665023	-0.02748897046783705	-0.11821850313266902	0.4806415788787881	-0.02606899877878943	-0.0737679847017273	0.5084166956614116	-0.013825679670174562	-0.09649999058061765	0.5262512891631042	-0.014628748334904351	-0.09954668638904862	0.5397985522926529	-0.001091797997930466	-0.11583264568756935	0.5003768105133429	0.014950579260989416	-0.1173174018857055	0.5072383234553739	-0.014845604690227554	-0.08453961761526763	0.5247185620010573	-0.01016222024958191	-0.08382745852691598	0.5433886286508711	0.006548049336430051	-0.09871386345404043	0.5042377405760206	0.028049211799957896	-0.09974143178145867	0.5120168153208149	-0.003220648598793008	-0.07195549448468419	0.529350217093598	0.0009313550795760905	-0.07465994423243139	0.5453859985703935	0.017048395861376298	-0.08482235968675389	0.5092870303714929	0.03488548161008431	-0.08115852276789459	0.5222282630706798	-0.002924302607980711	-0.06116031975597824	0.5388259857469144	-8.208619947114304e-05	-0.06423235618968237	0.5457646471098225	0.018959562636052474	-0.06971711754415277	0.5122216501581451	0.03031878264409782	-0.06288199301649555	0.46228308100186083	-0.023011742144276925	-0.051989820119430985
22	0.7666666666666633	0.4856277020742779	-0.01862119657981076	-0.17140448481662007	0.48663830185354295	-0.02134020575030282	-0.14861006275294553	0.48420374364845337	-0.027569450176875288	-0.11821122329779443	0.48063962569527297	-0.026056344353162064	-0.07377140360889323	0.5081196536868324	-0.01367066950433038	-0.09653557279622793	0.5259728195203797	-0.014606701999110516	-0.09943183122540478	0.5397471596799119	-0.001210904154564929	-0.11564386337062227	0.5003869289075437	0.014964846404013743	-0.11730320703983521	0.5069496272927335	-0.014573433781471357	-0.08486332123199825	0.5244540041065262	-0.010057655097069795	-0.08376580802740263	0.5433460525616813	0.006438729148793176	-0.09861065096968125	0.5042573875129235	0.02804850942043735	-0.09972491409716899	0.5117361256555767	-0.003033937088147143	-0.07195309048600074	0.5291150667503097	0.0009743887674779073	-0.07458096610347786	0.5453202509208788	0.01693291108635775	-0.08472480908312607	0.5092739162291859	0.03489586842884351	-0.08115903387897949	0.5219960818767295	-0.002777343391129783	-0.061095473886512375	0.5386244403405649	-0.00011886943191818933	-0.06416633874944322	0.5457108275286076	0.01886437214885417	-0.06966467256135234	0.5121960226178197	0.03034145895364926	-0.06288840653447325	0.4622830810018609	-0.023011742144276925	-0.051989820119430985
23	0.7999999999999965	0.4859637287598064	-0.018913961285194403	-0.17140387695422565	0.48687270149746226	-0.02155319314039883	-0.14859580330087496	0.4843193801648416	-0.02765822263122275	-0.11818151118206088	0.48066286362259997	-0.02605140600406808	-0.07375248883064045	0.5080097187313788	-0.01347327031477974	-0.09657550674157911	0.5258681580910711	-0.014504549078564022	-0.09940616174485284	0.5397751186414405	-0.0011895089926456937	-0.11557143281467586	0.5004213136182127	0.014998474705128384	-0.11726356401360494	0.5066844829699206	-0.013791658707324683	-0.08528713487591799	0.5243115853764092	-0.009920519405725803	-0.08377071103715106	0.5433695981959987	0.006426516748730515	-0.09856855230989292	0.5042921416006512	0.02805640063213166	-0.09968588405531054	0.5114968246719923	-0.0025720123525481142	-0.07207534613818001	0.5289551048270583	0.0011506160728061987	-0.0745953643194589	0.5453186124648364	0.016961732356935988	-0.08471584843031565	0.5092715541810525	0.03491729498908813	-0.08112026869286704	0.5218135575185188	-0.0025493950904609264	-0.06106514315430467	0.5384772730795755	-0.0001390061092245709	-0.06414907062740283	0.5456658518233898	0.01880004381290945	-0.06966710856591829	0.5121829700864889	0.030357493809199942	-0.06286965086645735	0.4622830810018609	-0.023011742144276925	-0.051989820119430985
24	0.8333333333333297	0.4866157392304969	-0.019270600325016485	-0.17136907756941688	0.48730883602385205	-0.021823276205409026	-0.14854357729703083	0.48449867703433663	-0.027772867206226737	-0.11812112878648784	0.48071887216864306	-0.026034933195034693	-0.07370736222081575	0.5083246836809812	-0.013415588531206502	-0.09647922183310864	0.5261670415942552	-0.01434314031200623	-0.09944400037265622	0.5399073266022707	-0.0009240278167318428	-0.1156656470442391	0.5004678375623168	0.015070531693703981	-0.11719432763039805	0.5066737489407742	-0.012797572427155068	-0.08508558732204796	0.5244849566193823	-0.009786570955277907	-0.08378376123310727	0.5434811636972413	0.006604706067958377	-0.09861210248230401	0.5043264591461711	0.028100386807204725	-0.09960846691101521	0.5114883223761111	-0.002019673986972337	-0.07221680691274968	0.5290175167558644	0.0014209314448574428	-0.07464365232589254	0.5453891122916692	0.0172131479129759	-0.08478055212988089	0.509259434455123	0.03497061433664539	-0.08103360675536109	0.5217465899232164	-0.0022426530456680638	-0.06113049758247324	0.5384465361738635	-5.703770677822906e-05	-0.06418580130156681	0.5455873831402391	0.018908547255155228	-0.06967459995468617	0.5121082049697581	0.03043880012764788	-0.06281301495371427	0.46228308100186083	-0.023011742144276925	-0.051989820119430985
25	0.8666666666666629	0.48750642169378255	-0.019664556298249036	-0.17129513473057023	0.4878998597636749	-0.022150543339987894	-0.1484551462254622	0.48474289103167767	-0.027920006479209114	-0.118032016151284	0.4808005805700708	-0.026028257705195457	-0.07363866670792352	0.5093312112014725	-0.01376361773819379	-0.09615082650543016	0.5271066631546726	-0.014237784211818094	-0.0995871725320645	0.5402443332786647	-0.00044738248944109493	-0.11599559345086796	0.5006130420339926	0.01510248210039622	-0.11709038088124046	0.5072655004396179	-0.012409705159998952	-0.08454412344785456	0.525166085989787	-0.009737009234983662	-0.08389164091668155	0.5437565559970754	0.007034327564694465	-0.09880895424247427	0.5043880238448973	0.02814795039122364	-0.09950287666031976	0.511941784576664	-0.0017480332420457545	-0.07233975118026581	0.5294844175555387	0.0016164160830732799	-0.07477624639002978	0.5455861738214901	0.01767069351537176	-0.08493368702626747	0.5092856232844946	0.035013304697616654	-0.08090569719354568	0.5220593156182513	-0.0021447157478498013	-0.061296562989653025	0.538768034978621	2.3670329023395276e-05	-0.0643159667649078	0.5455607907621645	0.019150303653570955	-0.06968647749792478	0.5120449778192293	0.030514812566705185	-0.06272790933073058	0.46228308100186083	-0.023011742144276925	-0.051989820119430985
26	0.8999999999999961	0.48869223026052644	-0.02000928259877821	-0.17119436058392612	0.48869579781503125	-0.022429592291371092	-0.14834393196071438	0.4850732183346604	-0.028050486634012106	-0.11794487827976463	0.4808672149444578	-0.02602827258564122	-0.07358149038136153	0.5111439555831125	-0.014581463919057458	-0.09552771594737941	0.5287159611955825	-0.01410138830622154	-0.0998859433578394	0.5407118827793459	0.00035268530413778976	-0.11659484680547816	0.5007829773512141	0.015157650063680861	-0.11695764672279019	0.5086578604780653	-0.013021660956176628	-0.08368897363748429	0.5264785874909093	-0.00982483805462775	-0.0841384311658746	0.5442060724558022	0.007779041584052182	-0.09914673714910804	0.5044791427398517	0.02822116731562141	-0.09934287974684608	0.5131078413157701	-0.0021362907171801337	-0.07239584415519007	0.5305428765889022	0.0016248794416344747	-0.07501751233806198	0.5459087884416364	0.018391477894405317	-0.08516393576001491	0.5093444465545166	0.035062783697870525	-0.0807100274572804	0.5229304505991466	-0.002508875950908429	-0.061607515554710446	0.539573523366168	0.00018607354995936465	-0.06456477375436065	0.5456328128085366	0.019617651339801978	-0.06971363916830364	0.5120153910864883	0.030570380092307836	-0.06258691898044744	0.46228308100186083	-0.023011742144276925	-0.051989820119430985
27	0.9333333333333294	0.4901859290552193	-0.020298497970949514	-0.17106895483765483	0.48970370592397633	-0.0226959787471257	-0.14822120775441783	0.48548664839524697	-0.028171672203558318	-0.11787234934144675	0.4809008937947475	-0.026029975876504907	-0.07355221857012917	0.5139523958250547	-0.015755450848426555	-0.09484481043433823	0.5310455025720212	-0.013794552498323731	-0.10049994786833327	0.5412845208846915	0.0015747077159533607	-0.11755744409312097	0.5009482403575714	0.015215975985644836	-0.11682507312716417	0.5111814958217586	-0.014501602536248215	-0.08285636947034991	0.5286028925131309	-0.00988379904257708	-0.08463705142277234	0.5448217081396227	0.009024949055952192	-0.09976380966835252	0.504538612088635	0.028339630896765167	-0.09916118297206034	0.5151987057983622	-0.00320625253353668	-0.07251751360465075	0.5323250448797286	0.0015801390107068602	-0.07548044554029476	0.5463423692546641	0.019519764381751847	-0.08557323692397067	0.5093888083052532	0.035125055456811216	-0.08051062320960667	0.5246169311113005	-0.0033038802098573905	-0.062112661815961534	0.5410103490360163	0.0006465959318205927	-0.06505367983692611	0.5458067832646789	0.020510675220103414	-0.06987286978119311	0.5119958246959684	0.030620575568214625	-0.062423544535495035	0.4622830810018609	-0.023011742144276925	-0.051989820119430985
